<?xml version="1.0" standalone="no"?>
<!DOCTYPE svg PUBLIC "-//W3C//DTD SVG 20010904//EN"
 "http://www.w3.org/TR/2001/REC-SVG-20010904/DTD/svg10.dtd">
<svg version="1.0" xmlns="http://www.w3.org/2000/svg"
 width="128.000000pt" height="128.000000pt" viewBox="0 0 128.000000 128.000000"
 preserveAspectRatio="xMidYMid meet">

<g transform="translate(0.000000,128.000000) scale(0.100000,-0.100000)"
fill="#0065e1" stroke="none">
<path d="M895 1246 c-99 -43 -124 -173 -49 -255 19 -21 34 -41 34 -43 0 -3
-19 -8 -42 -11 -45 -6 -81 -28 -112 -71 -17 -22 -22 -46 -24 -117 -4 -78 -6
-89 -22 -89 -14 0 -20 9 -22 38 -3 35 -5 37 -42 40 l-38 3 5 39 c9 69 37 114
77 121 36 8 60 31 60 61 0 24 -35 58 -60 58 -28 0 -62 -37 -58 -63 1 -12 -8
-39 -21 -60 -12 -20 -28 -64 -34 -97 -11 -58 -12 -59 -47 -62 -32 -3 -35 -6
-38 -39 -2 -27 -9 -38 -23 -42 -16 -4 -19 -14 -19 -57 0 -43 3 -53 20 -57 17
-5 20 -14 20 -62 0 -56 -1 -57 -35 -70 -57 -20 -83 -92 -50 -138 14 -20 12
-24 -20 -56 l-35 -35 -35 34 c-34 32 -35 35 -21 56 42 59 -9 148 -85 148 -74
0 -124 -90 -84 -148 15 -21 14 -23 -19 -53 -41 -36 -59 -85 -54 -149 l3 -45
433 -3 c425 -2 434 -2 439 18 5 18 15 20 162 22 l156 3 3 236 c2 226 3 237 22
242 17 4 20 14 20 57 0 43 -3 53 -19 57 -17 4 -20 16 -23 93 -2 70 -7 94 -24
116 -31 43 -67 65 -112 71 -23 3 -42 9 -42 13 0 5 15 23 34 42 121 121 -21
323 -179 254z m145 -61 c16 -15 30 -36 33 -46 4 -16 2 -19 -16 -13 -12 3 -39
17 -59 30 l-38 24 -37 -24 c-21 -13 -48 -27 -60 -31 -19 -5 -22 -3 -16 12 8
25 44 63 68 74 35 15 95 3 125 -26z m-55 -71 c11 -8 36 -19 56 -24 44 -12 43
-32 -3 -76 -24 -24 -38 -29 -78 -29 -40 0 -54 5 -78 29 -46 44 -47 64 -3 76
20 5 45 16 56 24 11 9 22 15 25 15 3 0 14 -6 25 -15z m-309 -145 c10 -17 -13
-36 -27 -22 -12 12 -4 33 11 33 5 0 12 -5 16 -11z m324 -36 c0 -5 -9 -19 -20
-33 l-20 -25 -20 25 c-28 35 -25 40 20 40 22 0 40 -3 40 -7z m-95 -53 c17 -19
15 -50 -4 -50 -7 0 -31 51 -31 66 0 10 19 2 35 -16z m145 16 c0 -15 -24 -66
-31 -66 -19 0 -21 31 -4 50 16 18 35 26 35 16z m-205 -56 c9 -27 21 -52 25
-55 5 -3 23 1 40 10 l30 16 0 -76 0 -75 -60 0 -60 0 0 40 c0 33 -3 40 -20 40
-17 0 -20 -7 -20 -40 0 -33 -3 -40 -20 -40 -18 0 -20 7 -20 78 0 78 11 109 48
140 28 21 40 13 57 -38z m287 38 c37 -31 48 -62 48 -140 0 -71 -2 -78 -20 -78
-17 0 -20 7 -20 40 0 33 -3 40 -20 40 -17 0 -20 -7 -20 -40 l0 -40 -60 0 -60
0 0 75 0 76 30 -16 c17 -9 35 -13 40 -10 4 3 16 28 25 55 17 51 29 59 57 38z
m-512 -198 c0 -18 -7 -20 -60 -20 -53 0 -60 2 -60 20 0 18 7 20 60 20 53 0 60
-2 60 -20z m600 -80 c0 -20 -7 -20 -380 -20 -373 0 -380 0 -380 20 0 20 7 20
380 20 373 0 380 0 380 -20z m-40 -280 l0 -220 -138 0 -138 0 -12 44 c-7 28
-24 54 -47 75 -34 30 -35 32 -20 53 40 58 -10 148 -84 148 -75 0 -127 -89 -86
-147 14 -20 12 -24 -20 -56 l-35 -35 -35 34 c-34 32 -35 35 -21 56 9 12 16 33
16 46 0 30 -25 78 -45 85 -11 5 -15 22 -15 72 l0 65 340 0 340 0 0 -220z
m-960 40 c11 -11 20 -29 20 -40 0 -26 -34 -60 -60 -60 -26 0 -60 34 -60 60 0
26 34 60 60 60 11 0 29 -9 40 -20z m280 0 c11 -11 20 -29 20 -40 0 -26 -34
-60 -60 -60 -26 0 -60 34 -60 60 0 11 9 29 20 40 11 11 29 20 40 20 11 0 29
-9 40 -20z m280 0 c11 -11 20 -29 20 -40 0 -26 -34 -60 -60 -60 -11 0 -29 9
-40 20 -11 11 -20 29 -20 40 0 11 9 29 20 40 11 11 29 20 40 20 11 0 29 -9 40
-20z m-517 -178 c21 -21 31 -42 34 -76 l6 -46 -123 0 -123 0 6 46 c5 47 33 88
72 105 37 16 96 3 128 -29z m280 0 c21 -21 31 -42 34 -76 l6 -46 -123 0 -123
0 6 46 c5 47 33 88 72 105 37 16 96 3 128 -29z m280 0 c21 -21 31 -42 34 -76
l6 -46 -123 0 -123 0 6 46 c5 47 33 88 72 105 37 16 96 3 128 -29z"/>
<path d="M40 1200 c-18 -18 -20 -33 -20 -160 0 -191 -13 -180 220 -180 167 0
181 1 200 20 11 11 20 32 20 47 0 19 14 41 42 70 l42 43 -42 43 c-28 29 -42
51 -42 70 0 15 -9 36 -20 47 -19 19 -33 20 -200 20 -167 0 -181 -1 -200 -20z
m378 -55 c2 -18 18 -45 40 -67 l36 -38 -36 -37 c-22 -23 -38 -50 -40 -68 l-3
-30 -175 0 -175 0 -3 124 c-1 69 0 131 2 138 4 11 42 13 178 11 l173 -3 3 -30z"/>
<path d="M100 1120 c0 -19 7 -20 140 -20 133 0 140 1 140 20 0 19 -7 20 -140
20 -133 0 -140 -1 -140 -20z"/>
<path d="M140 1040 c0 -19 7 -20 100 -20 93 0 100 1 100 20 0 19 -7 20 -100
20 -93 0 -100 -1 -100 -20z"/>
<path d="M100 960 c0 -19 7 -20 140 -20 133 0 140 1 140 20 0 19 -7 20 -140
20 -133 0 -140 -1 -140 -20z"/>
</g>
</svg>
