<?xml version="1.0" standalone="no"?>
<!DOCTYPE svg PUBLIC "-//W3C//DTD SVG 20010904//EN"
 "http://www.w3.org/TR/2001/REC-SVG-20010904/DTD/svg10.dtd">
<svg version="1.0" xmlns="http://www.w3.org/2000/svg"
 width="512.000000pt" height="512.000000pt" viewBox="0 0 512.000000 512.000000"
 preserveAspectRatio="xMidYMid meet">

<g transform="translate(0.000000,512.000000) scale(0.100000,-0.100000)"
fill="#0065e1" stroke="none">
<path d="M3868 5017 c-27 -6 -48 -15 -48 -21 0 -26 38 -141 46 -141 56 3 127
20 131 31 3 8 2 44 -2 79 l-7 65 -36 -1 c-20 -1 -58 -6 -84 -12z"/>
<path d="M4157 4958 c-3 -45 -1 -76 5 -79 6 -4 33 -10 59 -13 27 -4 55 -9 63
-12 9 -3 18 15 31 63 10 37 20 73 22 78 4 12 -93 35 -144 35 l-30 0 -6 -72z"/>
<path d="M3580 4899 c-36 -22 -69 -44 -73 -48 -6 -6 40 -75 83 -124 6 -6 94
41 128 68 3 3 -67 145 -71 144 -1 0 -31 -18 -67 -40z"/>
<path d="M4470 4870 c-18 -38 -32 -71 -29 -73 2 -2 30 -20 61 -40 l57 -36 46
59 c25 32 45 62 45 67 0 7 -132 93 -143 93 -2 0 -18 -31 -37 -70z"/>
<path d="M4726 4674 l-58 -55 24 -27 c14 -15 33 -39 43 -54 9 -16 21 -28 26
-28 7 0 111 62 128 76 5 5 -40 71 -76 111 l-28 33 -59 -56z"/>
<path d="M3311 4653 l-50 -67 32 -21 c18 -12 48 -31 68 -43 l36 -22 42 55 c22
31 41 60 41 64 0 9 -104 101 -113 101 -3 0 -28 -30 -56 -67z"/>
<path d="M1632 4626 c-245 -60 -432 -293 -432 -540 0 -131 52 -272 135 -364
25 -27 45 -52 45 -55 0 -2 -26 -14 -57 -25 -175 -64 -320 -235 -352 -416 -7
-37 -11 -254 -11 -578 l0 -519 25 -24 24 -25 751 0 751 0 24 25 25 24 0 519
c0 324 -4 541 -11 578 -32 181 -177 352 -351 416 -32 11 -58 23 -58 25 0 3 20
28 45 55 237 263 145 703 -178 857 -45 22 -106 44 -135 50 -69 14 -173 13
-240 -3z m284 -180 c74 -34 139 -88 175 -145 16 -25 29 -48 29 -52 0 -4 -26 4
-58 17 -72 29 -212 54 -302 54 -90 0 -230 -25 -302 -54 -32 -13 -58 -21 -58
-17 0 4 13 27 29 52 47 75 148 146 238 169 67 16 185 5 249 -24z m59 -320 c44
-14 103 -39 132 -56 l51 -29 -10 -43 c-27 -124 -101 -219 -216 -275 -72 -36
-81 -38 -172 -38 -91 0 -100 2 -172 38 -115 56 -189 151 -216 275 l-10 43 51
29 c58 33 153 67 225 80 85 16 249 4 337 -24z m-440 -796 c-52 -104 -95 -198
-95 -207 0 -31 251 -607 272 -625 26 -23 70 -23 96 0 22 18 272 593 272 624 0
10 -43 104 -96 209 l-95 192 105 -5 c96 -4 112 -8 179 -41 90 -44 147 -103
190 -195 l32 -67 3 -487 3 -488 -641 0 -641 0 3 488 3 487 32 67 c40 85 97
147 172 186 74 40 116 50 219 51 l82 1 -95 -190z m303 -67 l74 -146 -74 -174
c-40 -95 -75 -173 -78 -173 -3 0 -38 78 -78 173 l-74 174 74 146 c40 81 75
147 78 147 3 0 38 -66 78 -147z"/>
<path d="M3674 4542 c-223 -79 -301 -339 -165 -549 16 -27 144 -162 284 -300
231 -232 256 -253 287 -253 31 0 56 21 283 248 137 136 266 273 287 304 129
196 71 437 -128 535 -49 24 -69 28 -142 28 -71 0 -94 -4 -140 -26 -55 -26
-112 -73 -143 -119 l-17 -24 -17 24 c-83 121 -255 180 -389 132z m186 -164
c35 -18 58 -43 106 -112 34 -50 71 -93 84 -98 51 -19 77 -1 141 93 33 50 75
99 92 109 130 80 287 -18 274 -171 -3 -30 -14 -73 -25 -95 -11 -21 -118 -136
-236 -254 l-216 -215 -216 215 c-118 118 -224 232 -235 253 -57 109 -23 233
75 278 55 25 102 24 156 -3z"/>
<path d="M4900 4403 c-36 -14 -67 -28 -69 -30 -5 -3 29 -125 38 -135 3 -4 29
-2 56 3 104 21 97 17 90 52 -11 52 -38 137 -44 137 -3 -1 -35 -13 -71 -27z"/>
<path d="M3166 4373 c-8 -27 -18 -64 -21 -84 l-7 -35 65 -12 c92 -17 91 -17
104 36 7 26 15 57 18 68 6 19 -2 25 -59 48 -37 14 -70 26 -75 26 -5 0 -16 -21
-25 -47z"/>
<path d="M3124 3998 c4 -44 9 -84 11 -88 4 -7 143 15 152 23 2 2 0 36 -3 76
l-7 71 -80 0 -80 0 7 -82z"/>
<path d="M4876 4009 c-3 -40 -5 -73 -3 -75 6 -7 147 -28 151 -23 3 3 8 42 12
87 l7 82 -80 0 -80 0 -7 -71z"/>
<path d="M3258 3761 c-37 -14 -68 -30 -68 -35 0 -13 62 -136 72 -142 9 -6 139
67 135 76 -35 77 -63 130 -67 129 -3 -1 -35 -13 -72 -28z"/>
<path d="M4793 3724 l-31 -65 56 -36 c32 -20 63 -36 71 -37 13 -1 81 116 81
140 0 9 -49 31 -135 60 -5 2 -24 -26 -42 -62z"/>
<path d="M3429 3484 l-54 -55 58 -55 c32 -30 62 -54 66 -54 10 0 91 105 91
118 0 5 -24 30 -53 55 l-54 46 -54 -55z"/>
<path d="M4616 3489 l-50 -47 27 -39 c15 -21 36 -49 46 -62 l18 -24 29 21 c16
11 46 38 66 59 l38 39 -59 52 c-33 29 -61 51 -63 51 -2 -1 -25 -23 -52 -50z"/>
<path d="M3690 3290 c-18 -38 -32 -71 -29 -73 8 -8 137 -57 148 -57 10 0 38
82 43 128 3 23 -24 39 -113 67 -11 4 -24 -14 -49 -65z"/>
<path d="M4365 3335 c-33 -12 -60 -27 -60 -31 0 -22 38 -144 45 -144 9 0 73
23 123 44 l37 16 -35 70 c-19 39 -39 70 -43 69 -4 0 -34 -11 -67 -24z"/>
<path d="M4006 3263 c-2 -10 -6 -45 -8 -78 l-3 -60 89 -3 89 -3 -7 38 c-3 21
-6 57 -6 81 l0 42 -74 0 c-63 0 -75 -3 -80 -17z"/>
<path d="M4048 2953 c-9 -2 -74 -81 -144 -175 l-128 -170 25 -19 c13 -10 41
-31 63 -46 l38 -27 22 25 c11 14 33 41 48 60 l27 34 1 -157 0 -158 -440 0
-440 0 0 -80 0 -80 495 0 496 0 24 25 c25 24 25 25 25 237 l1 213 27 -34 c15
-19 37 -46 48 -60 l22 -25 38 27 c22 15 50 36 63 46 l25 19 -127 170 c-134
179 -149 191 -209 175z"/>
<path d="M2797 2146 c-46 -17 -99 -57 -125 -93 -10 -16 -60 -101 -111 -191
-98 -171 -157 -244 -229 -281 -23 -11 -236 -91 -473 -177 -323 -117 -436 -154
-448 -147 -21 13 -26 47 -9 61 8 6 81 40 164 75 242 104 255 113 293 197 40
87 22 179 -49 252 -52 54 -136 85 -197 73 -98 -18 -736 -219 -808 -255 -141
-68 -263 -188 -332 -324 -34 -67 -143 -346 -188 -481 -56 -170 -205 -681 -205
-705 0 -11 11 -32 25 -45 l24 -25 504 0 c592 0 546 -9 558 110 10 92 54 186
109 233 22 18 345 186 746 386 l707 352 66 67 c37 37 78 90 93 117 45 85 208
533 208 572 0 66 -22 116 -75 168 -71 72 -157 93 -248 61z m138 -171 c14 -13
25 -33 25 -44 0 -24 -157 -446 -188 -506 -51 -98 -68 -109 -828 -488 l-710
-355 -61 -65 c-67 -72 -118 -165 -129 -233 l-6 -44 -384 0 c-211 0 -384 3
-384 7 0 26 174 582 226 723 101 269 143 352 228 436 99 99 171 131 578 253
286 86 341 99 364 91 56 -22 70 -72 32 -113 -13 -14 -101 -57 -204 -101 -114
-49 -191 -87 -207 -104 -92 -99 -68 -256 48 -316 81 -42 106 -36 595 142 245
90 469 177 498 195 93 56 167 146 275 335 54 94 110 181 124 192 35 27 78 26
108 -5z"/>
</g>
</svg>
