<?xml version="1.0" standalone="no"?>
<!DOCTYPE svg PUBLIC "-//W3C//DTD SVG 20010904//EN"
 "http://www.w3.org/TR/2001/REC-SVG-20010904/DTD/svg10.dtd">
<svg version="1.0" xmlns="http://www.w3.org/2000/svg"
 width="880.000000pt" height="698.000000pt" viewBox="0 0 880.000000 698.000000"
 preserveAspectRatio="xMidYMid meet">

<g transform="translate(0.000000,698.000000) scale(0.100000,-0.100000)"
fill="#0065e1" stroke="none">
<path d="M1540 6569 c-159 -45 -211 -69 -297 -138 -114 -92 -202 -229 -237
-369 -30 -120 -16 -309 30 -409 7 -17 14 -34 14 -37 0 -15 93 -145 137 -192
26 -28 84 -72 128 -99 44 -27 83 -55 88 -61 14 -23 183 -69 193 -53 3 5 28 9
55 9 28 0 71 5 96 11 35 9 47 9 53 -1 6 -10 20 -8 65 9 82 31 104 44 159 95
27 25 55 46 62 46 18 0 95 95 142 175 65 112 85 182 90 320 5 145 -6 200 -65
321 -79 164 -205 278 -378 343 -89 33 -267 49 -335 30z"/>
<path d="M7040 6568 c-157 -44 -195 -61 -280 -124 -119 -88 -203 -214 -246
-371 -23 -86 -15 -305 13 -378 48 -123 104 -209 180 -275 21 -19 38 -37 38
-42 0 -10 41 -39 52 -36 4 1 42 -15 83 -35 41 -20 80 -37 87 -37 7 0 21 -9 31
-20 26 -28 202 -43 202 -17 0 9 8 16 18 15 23 0 111 18 144 31 15 6 34 8 42 5
23 -9 125 63 208 146 61 62 85 95 121 171 59 122 77 194 77 313 0 148 -39 270
-124 388 -79 112 -186 193 -311 236 -113 40 -256 53 -335 30z"/>
<path d="M6225 5791 c-83 -67 -134 -142 -169 -249 -25 -74 -19 -235 12 -312
34 -86 82 -151 149 -201 34 -26 59 -49 56 -52 -3 -3 23 -20 58 -38 35 -17 65
-27 66 -22 2 5 27 8 56 5 51 -4 53 -3 88 40 20 23 41 54 49 68 7 14 30 43 51
65 l39 40 -60 33 c-33 17 -72 42 -87 54 -44 36 -123 121 -138 148 -72 132 -97
223 -99 366 0 57 -3 104 -6 104 -3 0 -32 -22 -65 -49z"/>
<path d="M7045 5054 c-81 -24 -126 -45 -191 -90 -115 -81 -185 -176 -237 -327
-21 -61 -21 -79 -27 -812 l-5 -750 -445 -5 -445 -5 -76 -37 c-91 -44 -173
-122 -211 -199 -59 -121 -58 -107 -58 -944 0 -679 2 -773 16 -823 29 -100 96
-194 170 -242 39 -25 49 -26 136 -23 137 4 153 7 193 37 51 39 113 125 135
190 19 52 20 85 21 538 0 266 4 503 7 528 l7 45 79 3 c46 2 84 -2 90 -8 13
-13 196 -13 196 0 0 13 197 13 205 0 8 -13 195 -13 195 0 0 13 197 13 205 0 8
-13 195 -13 195 -1 0 5 45 11 100 13 55 2 100 0 100 -4 0 -14 38 -9 95 13 30
11 53 25 50 30 -6 9 42 34 58 30 15 -3 119 114 144 164 67 131 63 51 63 1176
l0 1018 -29 86 c-67 200 -216 342 -420 400 -70 19 -248 19 -316 -1z"/>
<path d="M1490 5013 c-140 -27 -286 -119 -371 -233 -52 -69 -72 -109 -104
-204 l-25 -75 0 -1008 c0 -690 4 -1021 11 -1048 20 -75 64 -149 125 -215 50
-52 76 -70 131 -92 37 -15 84 -30 103 -34 19 -3 38 -11 41 -16 3 -5 47 -12 97
-15 80 -5 92 -4 98 11 5 14 21 17 100 15 66 -1 97 -6 105 -15 17 -21 187 -20
196 1 8 21 186 20 204 -1 17 -21 187 -20 196 1 8 21 186 20 204 -1 8 -10 35
-14 85 -14 66 0 75 -2 86 -22 10 -18 13 -135 13 -503 1 -370 4 -492 15 -531
18 -71 75 -152 137 -195 29 -20 51 -38 48 -40 -2 -3 44 -6 103 -8 59 -1 109
-7 113 -13 4 -6 16 -5 35 6 16 8 25 15 19 16 -5 0 13 15 41 34 64 43 100 86
132 156 l25 55 0 790 c0 859 2 831 -55 945 -31 59 -118 152 -175 186 -105 61
-127 64 -585 64 l-418 0 0 333 c0 182 4 338 9 345 13 21 53 -5 145 -93 44 -41
98 -86 120 -99 48 -28 106 -43 106 -27 0 5 17 13 38 16 63 10 121 46 202 125
43 41 102 98 131 127 30 28 70 69 90 90 19 21 63 64 97 95 34 31 62 58 62 60
0 2 32 37 71 78 107 112 129 153 129 248 0 63 -16 106 -60 156 -50 56 -84 70
-170 70 -99 0 -119 -13 -316 -210 l-156 -156 -367 366 c-201 201 -388 380
-416 397 -96 61 -167 81 -300 84 -66 2 -131 1 -145 -2z"/>
<path d="M6302 4623 c-49 -24 -106 -86 -138 -151 l-29 -57 -3 -447 -3 -448
-22 -5 c-12 -2 -155 -6 -317 -8 -290 -4 -296 -4 -375 -31 -273 -93 -456 -303
-510 -585 -12 -61 -15 -194 -15 -692 l0 -615 25 -50 c27 -54 65 -96 93 -102 9
-2 38 -6 65 -9 l47 -6 0 706 c0 751 0 747 49 860 31 73 186 219 235 223 17 2
56 10 86 19 30 8 67 15 82 15 18 0 28 5 28 15 0 12 17 15 95 15 76 0 97 -3
101 -15 5 -12 26 -15 105 -15 81 0 99 3 99 15 0 12 17 15 95 15 76 0 97 -3
101 -15 9 -23 79 -20 96 4 8 10 25 21 38 23 l25 3 3 565 c3 539 -2 790 -16
790 -4 0 -22 -8 -40 -17z"/>
<path d="M8148 4463 l-58 -4 -2 -1307 -3 -1307 -860 -5 -860 -5 -9 -103 c-4
-57 -6 -105 -3 -108 11 -12 126 -33 187 -36 65 -2 65 -2 -20 -7 -47 -3 321 -6
816 -6 823 0 904 1 920 16 11 10 28 19 39 21 20 3 20 12 23 1418 2 1321 1
1416 -15 1428 -16 12 -34 12 -155 5z m-1195 -2880 c-29 -2 -77 -2 -105 0 -29
2 -6 3 52 3 58 0 81 -1 53 -3z m400 0 c-29 -2 -77 -2 -105 0 -29 2 -6 3 52 3
58 0 81 -1 53 -3z m400 0 c-29 -2 -77 -2 -105 0 -29 2 -6 3 52 3 58 0 81 -1
53 -3z m400 0 c-29 -2 -77 -2 -105 0 -29 2 -6 3 52 3 58 0 81 -1 53 -3z"/>
<path d="M486 4384 c-3 -9 -6 -634 -6 -1389 0 -1154 2 -1374 14 -1378 7 -3 34
-9 60 -12 46 -7 61 -21 29 -27 -9 -2 390 -3 886 -3 844 0 903 2 912 18 6 9 18
17 28 17 33 0 39 21 32 125 l-6 100 -860 5 -860 5 -3 1278 -2 1277 -109 0
c-90 0 -110 -3 -115 -16z m467 -2801 c-29 -2 -77 -2 -105 0 -29 2 -6 3 52 3
58 0 81 -1 53 -3z m400 0 c-29 -2 -77 -2 -105 0 -29 2 -6 3 52 3 58 0 81 -1
53 -3z m400 0 c-29 -2 -77 -2 -105 0 -29 2 -6 3 52 3 58 0 81 -1 53 -3z m400
0 c-29 -2 -77 -2 -105 0 -29 2 -6 3 52 3 58 0 81 -1 53 -3z"/>
<path d="M5663 773 c15 -2 39 -2 55 0 15 2 2 4 -28 4 -30 0 -43 -2 -27 -4z"/>
</g>
</svg>
