<?xml version="1.0" standalone="no"?>
<!DOCTYPE svg PUBLIC "-//W3C//DTD SVG 20010904//EN"
 "http://www.w3.org/TR/2001/REC-SVG-20010904/DTD/svg10.dtd">
<svg version="1.0" xmlns="http://www.w3.org/2000/svg"
 width="512.000000pt" height="512.000000pt" viewBox="0 0 512.000000 512.000000"
 preserveAspectRatio="xMidYMid meet">

<g transform="translate(0.000000,512.000000) scale(0.100000,-0.100000)"
fill="#0065e1" stroke="none">
<path d="M927 4486 c-143 -40 -246 -177 -247 -328 0 -91 28 -164 90 -231 136
-149 359 -150 498 -3 69 73 95 146 90 251 -5 94 -35 162 -99 226 -81 81 -221
117 -332 85z"/>
<path d="M2824 4226 c-55 -17 -127 -70 -158 -115 -56 -81 -72 -200 -40 -295
22 -64 100 -147 166 -177 78 -35 193 -33 265 4 113 59 176 158 177 282 2 212
-206 365 -410 301z"/>
<path d="M412 3930 c-66 -40 -62 63 -62 -1600 0 -1292 2 -1516 14 -1545 19
-45 69 -75 124 -75 34 0 49 6 80 34 l37 34 3 386 3 386 342 -2 342 -3 5 -380
c4 -283 8 -386 18 -402 28 -49 114 -68 172 -38 60 31 60 31 60 520 0 504 3
485 -78 532 l-47 28 -407 3 -408 3 0 1023 0 1023 -23 34 c-41 61 -113 77 -175
39z"/>
<path d="M3364 3869 c-138 -53 -221 -203 -193 -352 10 -56 4 -195 -17 -414
l-6 -62 -172 -3 c-162 -3 -173 -4 -205 -27 -37 -27 -70 -90 -71 -136 0 -40 38
-114 71 -138 14 -10 43 -22 65 -27 51 -12 457 -12 508 0 98 22 131 83 143 260
l8 125 33 -63 c18 -35 48 -109 67 -165 37 -110 83 -322 73 -332 -3 -3 -217
-38 -474 -76 -258 -38 -489 -77 -513 -86 -25 -9 -64 -36 -87 -60 -77 -78 -75
-60 -72 -749 3 -603 3 -609 25 -649 25 -48 75 -96 123 -121 52 -26 163 -25
215 3 53 28 99 78 124 133 20 43 21 64 21 516 l0 472 113 16 c61 10 127 20
146 23 33 6 33 6 18 -18 -23 -34 -31 -101 -18 -141 24 -71 80 -109 184 -123
l47 -6 0 -397 c0 -231 4 -412 10 -433 31 -111 182 -131 232 -29 16 32 18 75
18 448 l0 412 49 0 c62 0 262 34 320 54 24 9 50 16 57 16 12 0 14 -77 14 -461
l0 -461 33 -33 c19 -19 47 -37 62 -41 43 -11 105 15 132 55 l23 34 0 526 0
527 51 49 c107 104 182 254 208 416 7 39 11 305 11 697 0 688 1 670 -56 724
-82 77 -209 56 -261 -42 l-23 -43 0 -622 c0 -637 -3 -693 -40 -781 -47 -109
-180 -202 -345 -243 -103 -26 -391 -54 -374 -36 3 2 99 18 215 36 130 19 231
39 266 54 94 37 151 96 189 194 23 62 24 99 4 261 -59 479 -220 873 -460 1128
-80 86 -199 174 -266 197 -58 21 -163 18 -225 -6z"/>
<path d="M894 3730 c-87 -27 -181 -123 -204 -210 -7 -26 -10 -285 -8 -762 l3
-723 30 -54 c37 -66 92 -115 162 -141 50 -18 78 -20 373 -20 l319 0 3 -437 3
-438 28 -57 c55 -111 153 -173 277 -173 123 0 219 59 278 170 l27 50 0 640 0
640 -27 51 c-32 60 -93 118 -157 148 -44 20 -64 21 -373 24 l-328 3 0 110 0
109 34 0 c148 0 279 134 279 285 0 86 -25 134 -146 288 -166 211 -177 227
-177 255 -1 71 -80 176 -164 219 -57 29 -175 40 -232 23z"/>
</g>
</svg>
